<svg width="512" height="512" viewBox="0 0 512 512" fill="none" xmlns="http://www.w3.org/2000/svg">
  <rect width="512" height="512" rx="100" fill="#FFFFFF"/>
  <path d="M256 128C185.308 128 128 185.308 128 256C128 326.692 185.308 384 256 384C326.692 384 384 326.692 384 256C384 185.308 326.692 128 256 128ZM256 341.333C208.872 341.333 170.667 303.128 170.667 256C170.667 208.872 208.872 170.667 256 170.667C303.128 170.667 341.333 208.872 341.333 256C341.333 303.128 303.128 341.333 256 341.333Z" fill="url(#paint0_linear)"/>
  <circle cx="256" cy="256" r="42.6667" fill="#1FB7B6"/>
  <defs>
    <linearGradient id="paint0_linear" x1="128" y1="128" x2="384" y2="384" gradientUnits="userSpaceOnUse">
      <stop stop-color="#1FB7B6"/>
      <stop offset="1" stop-color="#0F5FA8"/>
    </linearGradient>
  </defs>
</svg>
